Coordinates
version=1
nRows=4
nColumns=107
inDegrees=yes

Units are S.I. units (second, meters, Newtons, ...)
If the header above contains a line with 'inDegrees', this indicates whether rotational values are in degrees (yes) or radians (no).

endheader
time	sternoclavicular_r2	sternoclavicular_r3	unrotscap_r3	unrotscap_r2	acromioclavicular_r2	acromioclavicular_r3	acromioclavicular_r1	unrothum_r1	unrothum_r3	unrothum_r2	elv_angle	shoulder_elv	shoulder1_r2	shoulder_rot	elbow_flexion	pro_sup	deviation	flexion	proximal_distal_r1	proximal_distal_r3	cmc_flexion	cmc_abduction	mp_flexion	ip_flexion	mcp2_flexion	mcp2_abduction	pm2_flexion	md2_flexion	mcp3_flexion	mcp3_abduction	pm3_flexion	md3_flexion	mcp4_flexion	mcp4_abduction	pm4_flexion	md4_flexion	mcp5_flexion	mcp5_abduction	pm5_flexion	md5_flexion	bicpt_tx	bicpt_ty	bicpt_tz	bicpt2_tx	bicpt2_ty	bicpt2_tz	ptpt_tx	ptpt_ty	ptpt_tz	FCUpt_tx	FCUpt_ty	FCUpt_tz	EDCpt_tx	EDCpt_ty	EDCpt_tz	APLpt_tx	APLpt_ty	APLpt_tz	FPLpt_tx	FPLpt_ty	FPLpt_tz	FPLpt2_tx	FPLpt2_ty	FPLpt2_tz	PEC1pt2_tx	PEC1pt2_ty	PEC1pt2_tz	PEC1pt3_tx	PEC1pt3_ty	PEC1pt3_tz	PEC2pt2_tx	PEC2pt2_ty	PEC2pt2_tz	PEC2pt3_tx	PEC2pt3_ty	PEC2pt3_tz	PEC3pt2_tx	PEC3pt2_ty	PEC3pt2_tz	PEC3pt3_tx	PEC3pt3_ty	PEC3pt3_tz	DELT2pt2a_tx	DELT2pt2a_ty	DELT2pt2a_tz	DELT2pt2_tx	DELT2pt2_ty	DELT2pt2_tz	LAT1pt2_tx	LAT1pt2_ty	LAT1pt2_tz	LAT1pt3_tx	LAT1pt3_ty	LAT1pt3_tz	LAT2pt2_tx	LAT2pt2_ty	LAT2pt2_tz	LAT2pt3_tx	LAT2pt3_ty	LAT2pt3_tz	LAT3pt2_tx	LAT3pt2_ty	LAT3pt2_tz	LAT3pt3_tx	LAT3pt3_ty	LAT3pt3_tz
      1.16666667	     -0.32116444	      0.13603010	     -0.13603010	      0.32116444	     -0.06502927	      0.52554365	      0.23622825	     -0.23622825	     -0.52554365	      0.06502927	     99.07995447	     76.03853560	     -1.72927143	    -23.67989925	     28.71457208	     23.92148620	     -0.00693610	     -0.99455640	     -0.00945198	     -0.49727820	      1.33554963	      8.02579997	    -39.00190364	    -55.51177605	     13.79479442	     -4.02276044	     27.23163344	    -20.90158494	     79.67243166	      4.05874137	     84.06382572	     38.47805706	     69.31015487	    -10.49199219	     86.24363043	     22.99978275	     18.30217943	     -3.13772516	    -14.81207684	      4.90087019	      0.00084979	     -0.03089113	     -0.00483011	      0.01624866	     -0.01800045	     -0.00900520	      0.00578247	     -0.06604291	     -0.00197700	      0.00620137	     -0.18379283	     -0.00017494	     -0.00287057	      0.00076608	      0.00019179	      0.00018921	      0.00007569	      0.00037843	      0.00024219	      0.00072658	      0.00040870	      0.00002910	     -0.00003240	     -0.00003888	      0.00249238	      0.00874444	      0.00608309	     -0.00815303	      0.01968555	     -0.01867170	      0.00249238	      0.00874444	      0.00608309	      0.00054917	      0.01824926	     -0.00958931	      0.00394308	      0.00486267	      0.01595574	      0.00000000	      0.00773225	      0.00000000	     -0.00713918	     -0.03299230	     -0.00637533	      0.01580919	     -0.00054756	     -0.00467957	     -0.00088712	      0.01486977	     -0.00608309	      0.00245013	      0.02145978	     -0.01774234	     -0.00595636	      0.01288432	     -0.00544943	     -0.01241964	      0.02720492	     -0.03045768	     -0.02331850	      0.01440509	     -0.00730815	     -0.01546118	      0.03142929	     -0.03806154
      1.20000000	     -0.32095051	      0.13593949	     -0.13593949	      0.32095051	     -0.06498595	      0.52519359	      0.23607091	     -0.23607091	     -0.52519359	      0.06498595	     99.19888210	     75.98788706	     -1.73134711	    -23.81976605	     28.58109336	     23.66269019	     -0.00243783	     -0.99697638	     -0.00331326	     -0.49848819	      1.93226912	      8.41106294	    -38.83761377	    -55.35511956	     15.66912437	     -2.81442544	     27.95173489	    -20.40471629	     80.27657545	      3.63971980	     84.76070595	     38.77401143	     69.68848819	    -10.66917801	     87.25145778	     22.94724547	     18.95461536	     -3.61087367	    -14.43424438	      4.93507797	      0.00084537	     -0.03087583	     -0.00482765	      0.01623858	     -0.01796419	     -0.00902695	      0.00580159	     -0.06603055	     -0.00195616	      0.00617661	     -0.18379702	     -0.00016994	     -0.00283952	      0.00075685	      0.00019138	      0.00018765	      0.00007506	      0.00037530	      0.00024019	      0.00072058	      0.00040533	      0.00003611	     -0.00004623	     -0.00005548	      0.00249072	      0.00873861	      0.00607904	     -0.00814760	      0.01967244	     -0.01865926	      0.00249072	      0.00873861	      0.00607904	      0.00054880	      0.01823711	     -0.00958292	      0.00394115	      0.00485943	      0.01595103	      0.00000000	      0.00772189	      0.00000000	     -0.00713442	     -0.03297033	     -0.00636673	      0.01588289	     -0.00055205	     -0.00473605	     -0.00088653	      0.01485987	     -0.00607904	      0.00244850	      0.02144549	     -0.01773052	     -0.00595239	      0.01287574	     -0.00544580	     -0.01241137	      0.02718680	     -0.03043740	     -0.02330297	      0.01439550	     -0.00730329	     -0.01545088	      0.03140835	     -0.03803619
      1.23333333	     -0.32094894	      0.13593882	     -0.13593882	      0.32094894	     -0.06498563	      0.52519102	      0.23606975	     -0.23606975	     -0.52519102	      0.06498563	     99.21508532	     75.98751494	     -1.73162991	    -23.73787720	     28.51597489	     23.09908721	     -0.00137668	     -0.99952231	     -0.00186922	     -0.49976115	      2.94170535	      8.20764585	    -38.84936985	    -53.76900098	     17.53638656	     -1.39214653	     28.90064291	    -18.70408490	     79.89680271	      3.68380434	     84.44301642	     38.49146842	     69.39751441	    -10.68496191	     87.72737796	     21.77985035	     18.74511464	     -4.54184947	    -12.95561272	      4.91297766	      0.00084322	     -0.03086837	     -0.00482645	      0.01621610	     -0.01794650	     -0.00907399	      0.00584324	     -0.06600362	     -0.00191076	      0.00612275	     -0.18380609	     -0.00015889	     -0.00277188	      0.00073681	      0.00019035	      0.00018604	      0.00007441	      0.00037207	      0.00023813	      0.00071438	      0.00040184	      0.00004194	     -0.00006877	     -0.00008253	      0.00249070	      0.00873857	      0.00607901	     -0.00814756	      0.01967234	     -0.01865917	      0.00249070	      0.00873857	      0.00607901	      0.00054880	      0.01823702	     -0.00958288	      0.00394114	      0.00485941	      0.01595100	      0.00000000	      0.00772182	      0.00000000	     -0.00713439	     -0.03297017	     -0.00636667	      0.01583979	     -0.00054942	     -0.00470293	     -0.00088652	      0.01485979	     -0.00607901	      0.00244849	      0.02144538	     -0.01773044	     -0.00595236	      0.01287567	     -0.00544578	     -0.01241130	      0.02718667	     -0.03043725	     -0.02330286	      0.01439542	     -0.00730325	     -0.01545081	      0.03140820	     -0.03803600
      1.26666667	     -0.32077675	      0.13586589	     -0.13586589	      0.32077675	     -0.06495077	      0.52490925	      0.23594310	     -0.23594310	     -0.52490925	      0.06495077	     99.24694208	     75.94674744	     -1.73218591	    -23.86665787	     28.51091644	     22.75695534	     -0.00346910	     -0.99638552	     -0.00471753	     -0.49819276	      4.64447238	      7.72611433	    -38.05695993	    -53.38107829	     19.44078393	     -0.51422160	     29.68720551	    -18.38826317	     78.86338062	      3.69301522	     83.75920385	     38.31744405	     68.21467316	    -10.81712458	     87.21814434	     21.63386452	     18.24750220	     -5.31573219	    -13.09665352	      4.91192446	      0.00084305	     -0.03086779	     -0.00482635	      0.01620209	     -0.01794513	     -0.00910231	      0.00586852	     -0.06598727	     -0.00188319	      0.00609011	     -0.18381155	     -0.00015206	     -0.00273083	      0.00072470	      0.00018964	      0.00018803	      0.00007521	      0.00037607	      0.00024068	      0.00072205	      0.00040615	      0.00004082	     -0.00010415	     -0.00012498	      0.00248937	      0.00873388	      0.00607574	     -0.00814319	      0.01966179	     -0.01864916	      0.00248937	      0.00873388	      0.00607574	      0.00054850	      0.01822723	     -0.00957774	      0.00393960	      0.00485680	      0.01594721	      0.00000000	      0.00771347	      0.00000000	     -0.00713056	     -0.03295248	     -0.00635973	      0.01590754	     -0.00055356	     -0.00475505	     -0.00088605	      0.01485182	     -0.00607574	      0.00244718	      0.02143388	     -0.01772092	     -0.00594917	      0.01286877	     -0.00544285	     -0.01240465	      0.02717208	     -0.03042092	     -0.02329036	      0.01438770	     -0.00729933	     -0.01544252	      0.03139135	     -0.03801560
